<mxfile host="app.diagrams.net" agent="Mozilla/5.0 (Windows NT 10.0; Win64; x64) AppleWebKit/537.36 (KHTML, like Gecko) Chrome/131.0.0.0 Safari/537.36" version="25.0.3">
  <diagram name="Страница — 1" id="wTVbVLARGpGQdvWJl2xj">
    <mxGraphModel dx="-432" dy="1169" grid="1" gridSize="10" guides="1" tooltips="1" connect="1" arrows="1" fold="1" page="1" pageScale="1" pageWidth="827" pageHeight="1169" math="0" shadow="0">
      <root>
        <mxCell id="0" />
        <mxCell id="1" parent="0" />
        <mxCell id="dgGVusEM3EoO9SasVwt4-57" value="" style="rounded=0;whiteSpace=wrap;html=1;" vertex="1" parent="1">
          <mxGeometry x="4360" y="360" width="400" height="680" as="geometry" />
        </mxCell>
        <mxCell id="dgGVusEM3EoO9SasVwt4-1" value="" style="rounded=0;whiteSpace=wrap;html=1;fillColor=#647687;strokeColor=#314354;fontColor=#ffffff;" vertex="1" parent="1">
          <mxGeometry x="2760" y="585" width="880" height="400" as="geometry" />
        </mxCell>
        <mxCell id="dgGVusEM3EoO9SasVwt4-2" value="" style="rounded=0;whiteSpace=wrap;html=1;fillColor=#647687;strokeColor=#000000;fontColor=#ffffff;" vertex="1" parent="1">
          <mxGeometry x="2980" y="590" width="650" height="390" as="geometry" />
        </mxCell>
        <mxCell id="dgGVusEM3EoO9SasVwt4-3" value="" style="rounded=0;whiteSpace=wrap;html=1;" vertex="1" parent="1">
          <mxGeometry x="2840" y="600" width="10" height="60" as="geometry" />
        </mxCell>
        <mxCell id="dgGVusEM3EoO9SasVwt4-4" value="" style="rounded=0;whiteSpace=wrap;html=1;" vertex="1" parent="1">
          <mxGeometry x="3000" y="600" width="10" height="370" as="geometry" />
        </mxCell>
        <mxCell id="dgGVusEM3EoO9SasVwt4-5" value="" style="rounded=0;whiteSpace=wrap;html=1;" vertex="1" parent="1">
          <mxGeometry x="3160" y="600" width="10" height="250" as="geometry" />
        </mxCell>
        <mxCell id="dgGVusEM3EoO9SasVwt4-6" value="" style="rounded=0;whiteSpace=wrap;html=1;" vertex="1" parent="1">
          <mxGeometry x="3320" y="600" width="10" height="310" as="geometry" />
        </mxCell>
        <mxCell id="dgGVusEM3EoO9SasVwt4-7" value="" style="rounded=0;whiteSpace=wrap;html=1;" vertex="1" parent="1">
          <mxGeometry x="3480" y="600" width="10" height="370" as="geometry" />
        </mxCell>
        <mxCell id="dgGVusEM3EoO9SasVwt4-8" value="" style="endArrow=none;dashed=1;html=1;rounded=0;exitX=0.5;exitY=0;exitDx=0;exitDy=0;" edge="1" parent="1" source="dgGVusEM3EoO9SasVwt4-3">
          <mxGeometry width="50" height="50" relative="1" as="geometry">
            <mxPoint x="2860" y="640" as="sourcePoint" />
            <mxPoint x="2845" y="540" as="targetPoint" />
          </mxGeometry>
        </mxCell>
        <mxCell id="dgGVusEM3EoO9SasVwt4-9" value="Пользовать" style="edgeLabel;html=1;align=center;verticalAlign=middle;resizable=0;points=[];" vertex="1" connectable="0" parent="dgGVusEM3EoO9SasVwt4-8">
          <mxGeometry x="0.8889" y="-1" relative="1" as="geometry">
            <mxPoint x="-1" y="-13" as="offset" />
          </mxGeometry>
        </mxCell>
        <mxCell id="dgGVusEM3EoO9SasVwt4-10" value="" style="endArrow=none;dashed=1;html=1;rounded=0;exitX=0.5;exitY=0;exitDx=0;exitDy=0;" edge="1" parent="1">
          <mxGeometry width="50" height="50" relative="1" as="geometry">
            <mxPoint x="3004.83" y="600" as="sourcePoint" />
            <mxPoint x="3004.83" y="540" as="targetPoint" />
          </mxGeometry>
        </mxCell>
        <mxCell id="dgGVusEM3EoO9SasVwt4-11" value="" style="endArrow=none;dashed=1;html=1;rounded=0;exitX=0.5;exitY=0;exitDx=0;exitDy=0;" edge="1" parent="1">
          <mxGeometry width="50" height="50" relative="1" as="geometry">
            <mxPoint x="3164.83" y="600" as="sourcePoint" />
            <mxPoint x="3164.83" y="540" as="targetPoint" />
          </mxGeometry>
        </mxCell>
        <mxCell id="dgGVusEM3EoO9SasVwt4-12" value="" style="endArrow=none;dashed=1;html=1;rounded=0;exitX=0.5;exitY=0;exitDx=0;exitDy=0;" edge="1" parent="1">
          <mxGeometry width="50" height="50" relative="1" as="geometry">
            <mxPoint x="3324.83" y="600" as="sourcePoint" />
            <mxPoint x="3324.83" y="540" as="targetPoint" />
          </mxGeometry>
        </mxCell>
        <mxCell id="dgGVusEM3EoO9SasVwt4-13" value="" style="endArrow=none;dashed=1;html=1;rounded=0;exitX=0.5;exitY=0;exitDx=0;exitDy=0;" edge="1" parent="1">
          <mxGeometry width="50" height="50" relative="1" as="geometry">
            <mxPoint x="3484.83" y="600" as="sourcePoint" />
            <mxPoint x="3484.83" y="540" as="targetPoint" />
          </mxGeometry>
        </mxCell>
        <mxCell id="dgGVusEM3EoO9SasVwt4-14" value="Arduino" style="edgeLabel;html=1;align=center;verticalAlign=middle;resizable=0;points=[];" vertex="1" connectable="0" parent="1">
          <mxGeometry x="3005" y="530.0033333333333" as="geometry" />
        </mxCell>
        <mxCell id="dgGVusEM3EoO9SasVwt4-15" value="Тепловизор" style="edgeLabel;html=1;align=center;verticalAlign=middle;resizable=0;points=[];" vertex="1" connectable="0" parent="1">
          <mxGeometry x="3165" y="530.0033333333333" as="geometry" />
        </mxCell>
        <mxCell id="dgGVusEM3EoO9SasVwt4-16" value="Сервоприводы" style="edgeLabel;html=1;align=center;verticalAlign=middle;resizable=0;points=[];" vertex="1" connectable="0" parent="1">
          <mxGeometry x="3325" y="530.0033333333333" as="geometry" />
        </mxCell>
        <mxCell id="dgGVusEM3EoO9SasVwt4-17" value="Экран TFT" style="edgeLabel;html=1;align=center;verticalAlign=middle;resizable=0;points=[];" vertex="1" connectable="0" parent="1">
          <mxGeometry x="3485" y="530.0033333333333" as="geometry" />
        </mxCell>
        <mxCell id="dgGVusEM3EoO9SasVwt4-18" style="edgeStyle=orthogonalEdgeStyle;rounded=0;orthogonalLoop=1;jettySize=auto;html=1;entryX=-0.047;entryY=0.083;entryDx=0;entryDy=0;entryPerimeter=0;" edge="1" parent="1" source="dgGVusEM3EoO9SasVwt4-3" target="dgGVusEM3EoO9SasVwt4-4">
          <mxGeometry relative="1" as="geometry" />
        </mxCell>
        <mxCell id="dgGVusEM3EoO9SasVwt4-19" value="Запуск системы" style="edgeLabel;html=1;align=center;verticalAlign=middle;resizable=0;points=[];" vertex="1" connectable="0" parent="dgGVusEM3EoO9SasVwt4-18">
          <mxGeometry x="-0.0328" relative="1" as="geometry">
            <mxPoint y="-10" as="offset" />
          </mxGeometry>
        </mxCell>
        <mxCell id="dgGVusEM3EoO9SasVwt4-20" value="" style="endArrow=classic;html=1;rounded=0;exitX=0.98;exitY=0.082;exitDx=0;exitDy=0;exitPerimeter=0;entryX=0;entryY=0.5;entryDx=0;entryDy=0;" edge="1" parent="1">
          <mxGeometry width="50" height="50" relative="1" as="geometry">
            <mxPoint x="3009.8" y="640" as="sourcePoint" />
            <mxPoint x="3160" y="639.66" as="targetPoint" />
          </mxGeometry>
        </mxCell>
        <mxCell id="dgGVusEM3EoO9SasVwt4-21" value="Инициализация" style="edgeLabel;html=1;align=center;verticalAlign=middle;resizable=0;points=[];" vertex="1" connectable="0" parent="dgGVusEM3EoO9SasVwt4-20">
          <mxGeometry x="-0.0475" y="1" relative="1" as="geometry">
            <mxPoint y="-19" as="offset" />
          </mxGeometry>
        </mxCell>
        <mxCell id="dgGVusEM3EoO9SasVwt4-22" value="" style="endArrow=none;html=1;rounded=0;exitX=0.98;exitY=0.082;exitDx=0;exitDy=0;exitPerimeter=0;entryX=0;entryY=0.5;entryDx=0;entryDy=0;endFill=0;startArrow=classic;startFill=1;" edge="1" parent="1">
          <mxGeometry width="50" height="50" relative="1" as="geometry">
            <mxPoint x="3010" y="700.34" as="sourcePoint" />
            <mxPoint x="3160.2" y="700" as="targetPoint" />
          </mxGeometry>
        </mxCell>
        <mxCell id="dgGVusEM3EoO9SasVwt4-23" value="Считывание данных" style="edgeLabel;html=1;align=center;verticalAlign=middle;resizable=0;points=[];" vertex="1" connectable="0" parent="dgGVusEM3EoO9SasVwt4-22">
          <mxGeometry x="-0.0475" y="1" relative="1" as="geometry">
            <mxPoint y="-19" as="offset" />
          </mxGeometry>
        </mxCell>
        <mxCell id="dgGVusEM3EoO9SasVwt4-24" value="" style="endArrow=classic;html=1;rounded=0;exitX=0.98;exitY=0.082;exitDx=0;exitDy=0;exitPerimeter=0;entryX=0;entryY=0.5;entryDx=0;entryDy=0;endFill=1;startArrow=none;startFill=0;" edge="1" parent="1">
          <mxGeometry width="50" height="50" relative="1" as="geometry">
            <mxPoint x="3010" y="760.34" as="sourcePoint" />
            <mxPoint x="3160.2" y="760" as="targetPoint" />
          </mxGeometry>
        </mxCell>
        <mxCell id="dgGVusEM3EoO9SasVwt4-25" value="Обработка данных" style="edgeLabel;html=1;align=center;verticalAlign=middle;resizable=0;points=[];" vertex="1" connectable="0" parent="dgGVusEM3EoO9SasVwt4-24">
          <mxGeometry x="-0.0475" y="1" relative="1" as="geometry">
            <mxPoint y="-19" as="offset" />
          </mxGeometry>
        </mxCell>
        <mxCell id="dgGVusEM3EoO9SasVwt4-26" value="" style="endArrow=classic;html=1;rounded=0;exitX=0.98;exitY=0.082;exitDx=0;exitDy=0;exitPerimeter=0;entryX=0;entryY=0.5;entryDx=0;entryDy=0;endFill=1;startArrow=none;startFill=0;" edge="1" parent="1">
          <mxGeometry width="50" height="50" relative="1" as="geometry">
            <mxPoint x="3170" y="770.1700000000001" as="sourcePoint" />
            <mxPoint x="3320.2" y="769.83" as="targetPoint" />
          </mxGeometry>
        </mxCell>
        <mxCell id="dgGVusEM3EoO9SasVwt4-27" value="Вычисление углов" style="edgeLabel;html=1;align=center;verticalAlign=middle;resizable=0;points=[];" vertex="1" connectable="0" parent="dgGVusEM3EoO9SasVwt4-26">
          <mxGeometry x="-0.0475" y="1" relative="1" as="geometry">
            <mxPoint y="-19" as="offset" />
          </mxGeometry>
        </mxCell>
        <mxCell id="dgGVusEM3EoO9SasVwt4-28" value="" style="endArrow=classic;html=1;rounded=0;exitX=0.98;exitY=0.082;exitDx=0;exitDy=0;exitPerimeter=0;entryX=0;entryY=0.5;entryDx=0;entryDy=0;endFill=1;startArrow=none;startFill=0;" edge="1" parent="1">
          <mxGeometry width="50" height="50" relative="1" as="geometry">
            <mxPoint x="3329.8" y="790" as="sourcePoint" />
            <mxPoint x="3480" y="789.66" as="targetPoint" />
          </mxGeometry>
        </mxCell>
        <mxCell id="dgGVusEM3EoO9SasVwt4-29" value="Управление поворотом" style="edgeLabel;html=1;align=center;verticalAlign=middle;resizable=0;points=[];" vertex="1" connectable="0" parent="dgGVusEM3EoO9SasVwt4-28">
          <mxGeometry x="-0.0475" y="1" relative="1" as="geometry">
            <mxPoint y="-19" as="offset" />
          </mxGeometry>
        </mxCell>
        <mxCell id="dgGVusEM3EoO9SasVwt4-30" value="" style="endArrow=none;html=1;rounded=0;exitX=0.98;exitY=0.082;exitDx=0;exitDy=0;exitPerimeter=0;entryX=0;entryY=0.5;entryDx=0;entryDy=0;endFill=0;startArrow=classic;startFill=1;" edge="1" parent="1">
          <mxGeometry width="50" height="50" relative="1" as="geometry">
            <mxPoint x="3330" y="850.34" as="sourcePoint" />
            <mxPoint x="3480.2" y="850" as="targetPoint" />
          </mxGeometry>
        </mxCell>
        <mxCell id="dgGVusEM3EoO9SasVwt4-31" value="Отображение тепловой&lt;div&gt;карты&lt;/div&gt;" style="edgeLabel;html=1;align=center;verticalAlign=middle;resizable=0;points=[];" vertex="1" connectable="0" parent="dgGVusEM3EoO9SasVwt4-30">
          <mxGeometry x="-0.0475" y="1" relative="1" as="geometry">
            <mxPoint y="-19" as="offset" />
          </mxGeometry>
        </mxCell>
        <mxCell id="dgGVusEM3EoO9SasVwt4-32" value="loop (1, n)" style="shape=parallelogram;perimeter=parallelogramPerimeter;whiteSpace=wrap;html=1;fixedSize=1;fillColor=#303030;flipH=0;flipV=0;" vertex="1" parent="1">
          <mxGeometry x="3530" y="590" width="100" height="30" as="geometry" />
        </mxCell>
        <mxCell id="dgGVusEM3EoO9SasVwt4-45" style="edgeStyle=orthogonalEdgeStyle;rounded=0;orthogonalLoop=1;jettySize=auto;html=1;" edge="1" parent="1" source="dgGVusEM3EoO9SasVwt4-33" target="dgGVusEM3EoO9SasVwt4-34">
          <mxGeometry relative="1" as="geometry" />
        </mxCell>
        <mxCell id="dgGVusEM3EoO9SasVwt4-33" value="НАЧАЛО" style="rounded=1;whiteSpace=wrap;html=1;" vertex="1" parent="1">
          <mxGeometry x="4410" y="540" width="120" height="60" as="geometry" />
        </mxCell>
        <mxCell id="dgGVusEM3EoO9SasVwt4-46" style="edgeStyle=orthogonalEdgeStyle;rounded=0;orthogonalLoop=1;jettySize=auto;html=1;" edge="1" parent="1" source="dgGVusEM3EoO9SasVwt4-34" target="dgGVusEM3EoO9SasVwt4-35">
          <mxGeometry relative="1" as="geometry" />
        </mxCell>
        <mxCell id="dgGVusEM3EoO9SasVwt4-34" value="Инициализация SPI и дисплея" style="rounded=0;whiteSpace=wrap;html=1;" vertex="1" parent="1">
          <mxGeometry x="4410" y="640" width="120" height="60" as="geometry" />
        </mxCell>
        <mxCell id="dgGVusEM3EoO9SasVwt4-47" style="edgeStyle=orthogonalEdgeStyle;rounded=0;orthogonalLoop=1;jettySize=auto;html=1;" edge="1" parent="1" source="dgGVusEM3EoO9SasVwt4-35" target="dgGVusEM3EoO9SasVwt4-36">
          <mxGeometry relative="1" as="geometry" />
        </mxCell>
        <mxCell id="dgGVusEM3EoO9SasVwt4-35" value="Инициализация AMG8833" style="rounded=0;whiteSpace=wrap;html=1;" vertex="1" parent="1">
          <mxGeometry x="4410" y="740" width="120" height="60" as="geometry" />
        </mxCell>
        <mxCell id="dgGVusEM3EoO9SasVwt4-48" style="edgeStyle=orthogonalEdgeStyle;rounded=0;orthogonalLoop=1;jettySize=auto;html=1;" edge="1" parent="1" source="dgGVusEM3EoO9SasVwt4-36" target="dgGVusEM3EoO9SasVwt4-37">
          <mxGeometry relative="1" as="geometry" />
        </mxCell>
        <mxCell id="dgGVusEM3EoO9SasVwt4-36" value="Чтение данных (8x8 температур)" style="rounded=0;whiteSpace=wrap;html=1;" vertex="1" parent="1">
          <mxGeometry x="4410" y="840" width="120" height="60" as="geometry" />
        </mxCell>
        <mxCell id="dgGVusEM3EoO9SasVwt4-49" style="edgeStyle=orthogonalEdgeStyle;rounded=0;orthogonalLoop=1;jettySize=auto;html=1;" edge="1" parent="1" source="dgGVusEM3EoO9SasVwt4-37" target="dgGVusEM3EoO9SasVwt4-38">
          <mxGeometry relative="1" as="geometry" />
        </mxCell>
        <mxCell id="dgGVusEM3EoO9SasVwt4-37" value="Преобразование в цветовую палитру" style="rounded=0;whiteSpace=wrap;html=1;" vertex="1" parent="1">
          <mxGeometry x="4410" y="940" width="120" height="60" as="geometry" />
        </mxCell>
        <mxCell id="dgGVusEM3EoO9SasVwt4-50" style="edgeStyle=orthogonalEdgeStyle;rounded=0;orthogonalLoop=1;jettySize=auto;html=1;" edge="1" parent="1" source="dgGVusEM3EoO9SasVwt4-38" target="dgGVusEM3EoO9SasVwt4-39">
          <mxGeometry relative="1" as="geometry" />
        </mxCell>
        <mxCell id="dgGVusEM3EoO9SasVwt4-38" value="Отображение тепловой карты" style="rounded=0;whiteSpace=wrap;html=1;" vertex="1" parent="1">
          <mxGeometry x="4590" y="940" width="120" height="60" as="geometry" />
        </mxCell>
        <mxCell id="dgGVusEM3EoO9SasVwt4-51" style="edgeStyle=orthogonalEdgeStyle;rounded=0;orthogonalLoop=1;jettySize=auto;html=1;" edge="1" parent="1" source="dgGVusEM3EoO9SasVwt4-39" target="dgGVusEM3EoO9SasVwt4-40">
          <mxGeometry relative="1" as="geometry" />
        </mxCell>
        <mxCell id="dgGVusEM3EoO9SasVwt4-39" value="Поиск самой горячей точки" style="rounded=0;whiteSpace=wrap;html=1;" vertex="1" parent="1">
          <mxGeometry x="4590" y="840" width="120" height="60" as="geometry" />
        </mxCell>
        <mxCell id="dgGVusEM3EoO9SasVwt4-52" style="edgeStyle=orthogonalEdgeStyle;rounded=0;orthogonalLoop=1;jettySize=auto;html=1;" edge="1" parent="1" source="dgGVusEM3EoO9SasVwt4-40" target="dgGVusEM3EoO9SasVwt4-41">
          <mxGeometry relative="1" as="geometry" />
        </mxCell>
        <mxCell id="dgGVusEM3EoO9SasVwt4-40" value="Преобразование координат в углы" style="rounded=0;whiteSpace=wrap;html=1;" vertex="1" parent="1">
          <mxGeometry x="4590" y="740" width="120" height="60" as="geometry" />
        </mxCell>
        <mxCell id="dgGVusEM3EoO9SasVwt4-53" style="edgeStyle=orthogonalEdgeStyle;rounded=0;orthogonalLoop=1;jettySize=auto;html=1;" edge="1" parent="1" source="dgGVusEM3EoO9SasVwt4-41" target="dgGVusEM3EoO9SasVwt4-42">
          <mxGeometry relative="1" as="geometry" />
        </mxCell>
        <mxCell id="dgGVusEM3EoO9SasVwt4-41" value="Управление сервоприводами" style="rounded=0;whiteSpace=wrap;html=1;" vertex="1" parent="1">
          <mxGeometry x="4590" y="640" width="120" height="60" as="geometry" />
        </mxCell>
        <mxCell id="dgGVusEM3EoO9SasVwt4-54" style="edgeStyle=orthogonalEdgeStyle;rounded=0;orthogonalLoop=1;jettySize=auto;html=1;" edge="1" parent="1" source="dgGVusEM3EoO9SasVwt4-42" target="dgGVusEM3EoO9SasVwt4-44">
          <mxGeometry relative="1" as="geometry" />
        </mxCell>
        <mxCell id="dgGVusEM3EoO9SasVwt4-42" value="Обновление тепловой карты" style="rounded=0;whiteSpace=wrap;html=1;" vertex="1" parent="1">
          <mxGeometry x="4590" y="540" width="120" height="60" as="geometry" />
        </mxCell>
        <mxCell id="dgGVusEM3EoO9SasVwt4-44" value="Задержка" style="rounded=0;whiteSpace=wrap;html=1;" vertex="1" parent="1">
          <mxGeometry x="4590" y="440" width="120" height="60" as="geometry" />
        </mxCell>
        <mxCell id="dgGVusEM3EoO9SasVwt4-58" value="" style="shape=card;whiteSpace=wrap;html=1;rotation=-90;flipH=0;flipV=1;" vertex="1" parent="1">
          <mxGeometry x="4370" y="350" width="80" height="100" as="geometry" />
        </mxCell>
        <mxCell id="dgGVusEM3EoO9SasVwt4-59" value="&lt;span style=&quot;color: rgb(0, 0, 0); font-family: Helvetica; font-size: 12px; font-style: normal; font-variant-ligatures: normal; font-variant-caps: normal; font-weight: 400; letter-spacing: normal; orphans: 2; text-align: center; text-indent: 0px; text-transform: none; widows: 2; word-spacing: 0px; -webkit-text-stroke-width: 0px; white-space: normal; background-color: rgb(251, 251, 251); text-decoration-thickness: initial; text-decoration-style: initial; text-decoration-color: initial; display: inline !important; float: none;&quot;&gt;loop (1, n)&lt;/span&gt;" style="text;whiteSpace=wrap;html=1;" vertex="1" parent="1">
          <mxGeometry x="4380" y="385" width="60" height="30" as="geometry" />
        </mxCell>
      </root>
    </mxGraphModel>
  </diagram>
</mxfile>
